<?xml version="1.0" encoding="UTF-8"?>
<svg width="250px" height="250px" viewBox="0 0 250 250" version="1.1" xmlns="http://www.w3.org/2000/svg" xmlns:xlink="http://www.w3.org/1999/xlink">
    <!-- Generator: Sketch 50.2 (55047) - http://www.bohemiancoding.com/sketch -->
    <title>Group 2</title>
    <desc>Created with Sketch.</desc>
    <defs></defs>
    <g id="Page-1" stroke="none" stroke-width="1" fill="none" fill-rule="evenodd">
        <g id="Group-2">
            <circle id="Oval" fill="#EFEFEF" cx="125" cy="125" r="125"></circle>
            <g id="Group" transform="translate(29.000000, 25.000000)">
                <path d="M166.128734,165 C158.027528,165 150.777743,161.345728 145.923373,155.583223 C142.136456,151.104824 137.104177,148.760212 131.264955,148.760212 L131.169647,148.760212 C125.324071,148.760212 120.291792,151.104824 116.511229,155.583223 C116.466752,155.64072 116.415921,155.691829 116.371444,155.749326 C111.517074,150.08265 104.330827,146.498653 96.3058679,146.498653 C88.2809084,146.498653 81.094662,150.08265 76.2339383,155.749326 C76.1894611,155.691829 76.1449839,155.64072 76.1005067,155.583223 C72.3199438,151.104824 67.2876652,148.760212 61.442089,148.760212 L61.3531346,148.760212 C55.5012045,148.760212 50.4689258,151.104824 46.688363,155.583223 C41.8339932,161.345728 34.5842079,165 26.4830017,165 C11.8563535,165 0,153.078897 0,138.37237 C0,123.659455 11.8563535,111.74474 26.4830017,111.74474 C29.564637,111.74474 32.5191946,112.274993 35.2704277,113.246058 C35.0353339,114.677102 34.9082561,116.146477 34.9082561,117.647795 C34.9082561,132.36071 46.7646096,144.281813 61.3912579,144.281813 C69.492464,144.281813 76.7422493,140.627541 81.5966191,134.865036 C85.377182,130.380248 90.4094606,128.042025 96.2613907,128.042025 L96.3503451,128.042025 C102.195921,128.042025 107.2282,130.380248 111.008763,134.865036 C115.869487,140.627541 123.119272,144.281813 131.214124,144.281813 C145.840772,144.281813 157.70348,132.36071 157.70348,117.647795 C157.70348,116.146477 157.576402,114.677102 157.341308,113.246058 C160.092541,112.274993 163.047099,111.74474 166.128734,111.74474 C180.755382,111.74474 192.611736,123.659455 192.611736,138.37237 C192.611736,153.078897 180.755382,165 166.128734,165 M111.320103,100.072792 C111.218441,99.9514092 111.116779,99.830026 111.008763,99.7086429 C107.2282,95.223855 102.195921,92.8856322 96.3503451,92.8856322 L96.2613907,92.8856322 C90.4094606,92.8856322 85.377182,95.223855 81.5966191,99.7086429 C81.4949569,99.830026 81.3932947,99.9514092 81.2852786,100.072792 C76.4372627,94.5211104 69.3209091,91.0265534 61.3912579,91.0265534 C53.4679606,91.0265534 46.3579608,94.527499 41.503591,100.072792 C38.3139397,96.4249093 36.1027869,91.9017898 35.2704277,86.8995264 C39.7499182,85.3151568 43.6829743,82.5616759 46.688363,78.9904559 C50.4689258,74.505668 55.5012045,72.1610566 61.3531346,72.1610566 L61.442089,72.1610566 C67.2876652,72.1610566 72.3199438,74.505668 76.1005067,78.9904559 C80.9612304,84.7529612 88.2046618,88.4008443 96.3058679,88.4008443 C104.40072,88.4008443 111.656859,84.7529612 116.511229,78.9904559 C120.291792,74.505668 125.324071,72.1610566 131.169647,72.1610566 L131.264955,72.1610566 C137.104177,72.1610566 142.136456,74.505668 145.923373,78.9840673 C148.935115,82.5552873 152.861818,85.3151568 157.341308,86.8995264 C156.508949,91.9017898 154.297796,96.4249093 151.108145,100.072792 C146.253775,94.527499 139.143775,91.0265534 131.214124,91.0265534 C123.290827,91.0265534 116.174473,94.5211104 111.320103,100.072792 M116.371444,44.3962584 C111.517074,38.7359705 104.330827,35.1455847 96.3058679,35.1455847 C88.2809084,35.1455847 81.094662,38.7359705 76.2339383,44.3962584 C72.2373433,39.73259 69.8228662,33.6634325 69.8228662,27.0193023 C69.8228662,12.3127755 81.6792196,0.391672488 96.3058679,0.391672488 C110.932516,0.391672488 122.78887,12.3127755 122.78887,27.0193023 C122.78887,33.6634325 120.368039,39.73259 116.371444,44.3962584" id="Fill-1" fill="#8167EE"></path>
                <path d="M96.3058679,200 C81.6792196,200 69.8228662,188.072508 69.8228662,173.37237 C69.8228662,166.72824 72.2373433,160.659082 76.2339383,155.995414 C81.094662,161.662091 88.2809084,165.246088 96.3058679,165.246088 C104.330827,165.246088 111.517074,161.662091 116.371444,155.995414 C120.374393,160.659082 122.78887,166.72824 122.78887,173.37237 C122.78887,188.072508 110.932516,200 96.3058679,200 M131.264955,128.224227 L131.169647,128.224227 C125.324071,128.224227 120.291792,125.886005 116.511229,121.401217 C111.656859,115.638711 104.40072,111.990828 96.3058679,111.990828 C88.2046618,111.990828 80.9612304,115.638711 76.1005067,121.401217 C72.3199438,125.886005 67.2876652,128.224227 61.442089,128.224227 L61.3531346,128.224227 C55.5012045,128.224227 50.4689258,125.886005 46.688363,121.401217 C43.6829743,117.829997 39.7499182,115.076516 35.2704277,113.492146 C36.096433,108.489883 38.3139397,103.960375 41.503591,100.31888 C46.3579608,105.864173 53.4679606,109.365119 61.3912579,109.365119 C69.3209091,109.365119 76.4372627,105.870562 81.2852786,100.31888 C81.3932947,100.440263 81.4949569,100.561646 81.5966191,100.68303 C85.377182,105.167818 90.4094606,107.50604 96.2613907,107.50604 L96.3503451,107.50604 C102.195921,107.50604 107.2282,105.167818 111.008763,100.68303 C111.116779,100.561646 111.218441,100.440263 111.320103,100.31888 C116.174473,105.870562 123.290827,109.365119 131.214124,109.365119 C139.143775,109.365119 146.253775,105.864173 151.108145,100.31888 C154.297796,103.960375 156.515303,108.489883 157.341308,113.492146 C152.861818,115.076516 148.935115,117.829997 145.923373,121.401217 C142.136456,125.886005 137.104177,128.224227 131.264955,128.224227 M166.128734,88.6469321 C163.047099,88.6469321 160.092541,88.1166794 157.341308,87.1456142 C157.576402,85.7145707 157.70348,84.2388072 157.70348,82.7374893 C157.70348,68.0309625 145.840772,56.1098595 131.214124,56.1098595 C123.119272,56.1098595 115.869487,59.7641311 111.008763,65.5266364 C107.2282,70.0114244 102.195921,72.3496471 96.3503451,72.3496471 L96.2613907,72.3496471 C90.4094606,72.3496471 85.377182,70.0114244 81.5966191,65.5266364 C76.7422493,59.7641311 69.492464,56.1098595 61.3912579,56.1098595 C46.7646096,56.1098595 34.9082561,68.0309625 34.9082561,82.7374893 C34.9082561,84.2388072 35.0353339,85.7145707 35.2704277,87.1456142 C32.5191946,88.1166794 29.564637,88.6469321 26.4830017,88.6469321 C11.8563535,88.6469321 0,76.7258291 0,62.0193023 C0,47.3127755 11.8563535,35.3916725 26.4830017,35.3916725 C34.5842079,35.3916725 41.8339932,39.0459441 46.688363,44.8084494 C50.4689258,49.2868488 55.5012045,51.6314601 61.3531346,51.6314601 L61.442089,51.6314601 C67.2876652,51.6314601 72.3199438,49.2868488 76.1005067,44.8084494 C76.1449839,44.7509522 76.1894611,44.6998435 76.2339383,44.6423462 C81.094662,50.3090227 88.2809084,53.8930199 96.3058679,53.8930199 C104.330827,53.8930199 111.517074,50.3090227 116.371444,44.6423462 C116.415921,44.6998435 116.466752,44.7509522 116.511229,44.8084494 C120.291792,49.2868488 125.324071,51.6314601 131.169647,51.6314601 L131.264955,51.6314601 C137.104177,51.6314601 142.136456,49.2868488 145.923373,44.8084494 C150.777743,39.0459441 158.027528,35.3916725 166.128734,35.3916725 C180.755382,35.3916725 192.611736,47.3127755 192.611736,62.0193023 C192.611736,76.7258291 180.755382,88.6469321 166.128734,88.6469321" id="Fill-2" fill="#B195DC"></path>
                <path d="M96.3976118,165.246088 C88.3726523,165.246088 81.1864059,161.662091 76.3256822,155.995414 C81.1864059,150.328738 88.3726523,146.74474 96.3976118,146.74474 C104.422571,146.74474 111.608818,150.328738 116.463187,155.995414 C111.608818,161.662091 104.422571,165.246088 96.3976118,165.246088 M131.305868,144.527901 C123.211016,144.527901 115.96123,140.873629 111.100507,135.111124 C107.319944,130.626336 102.287665,128.288113 96.442089,128.288113 L96.3531346,128.288113 C90.5012045,128.288113 85.4689258,130.626336 81.688363,135.111124 C76.8339932,140.873629 69.5842079,144.527901 61.4830017,144.527901 C46.8563535,144.527901 35,132.606798 35,117.893882 C35,116.392565 35.1270777,114.92319 35.3621716,113.492146 C39.841662,115.076516 43.7747182,117.829997 46.7801068,121.401217 C50.5606697,125.886005 55.5929483,128.224227 61.4448784,128.224227 L61.5338328,128.224227 C67.379409,128.224227 72.4116877,125.886005 76.1922506,121.401217 C81.0529742,115.638711 88.2964056,111.990828 96.3976118,111.990828 C104.492464,111.990828 111.748603,115.638711 116.602973,121.401217 C120.383536,125.886005 125.415814,128.224227 131.261391,128.224227 L131.356699,128.224227 C137.195921,128.224227 142.2282,125.886005 146.015117,121.401217 C149.026859,117.829997 152.953562,115.076516 157.433052,113.492146 C157.668146,114.92319 157.795224,116.392565 157.795224,117.893882 C157.795224,132.606798 145.932516,144.527901 131.305868,144.527901 M131.305868,109.365119 C123.382571,109.365119 116.266217,105.870562 111.411847,100.31888 C116.266217,94.7671982 123.382571,91.2726412 131.305868,91.2726412 C139.235519,91.2726412 146.345519,94.7735868 151.199889,100.31888 C146.345519,105.864173 139.235519,109.365119 131.305868,109.365119 M61.4830017,109.365119 C53.5597044,109.365119 46.4497047,105.864173 41.5953349,100.31888 C46.4497047,94.7735868 53.5597044,91.2726412 61.4830017,91.2726412 C69.4126529,91.2726412 76.5290066,94.7671982 81.3770225,100.31888 C76.5290066,105.870562 69.4126529,109.365119 61.4830017,109.365119 M96.3976118,88.6469321 C88.2964056,88.6469321 81.0529742,84.999049 76.1922506,79.2365437 C72.4116877,74.7517558 67.379409,72.4071444 61.5338328,72.4071444 L61.4448784,72.4071444 C55.5929483,72.4071444 50.5606697,74.7517558 46.7801068,79.2365437 C43.7747182,82.8077637 39.841662,85.5612446 35.3621716,87.1456142 C35.1270777,85.7145707 35,84.2388072 35,82.7374893 C35,68.0309625 46.8563535,56.1098595 61.4830017,56.1098595 C69.5842079,56.1098595 76.8339932,59.7641311 81.688363,65.5266364 C85.4689258,70.0114244 90.5012045,72.3496471 96.3531346,72.3496471 L96.442089,72.3496471 C102.287665,72.3496471 107.319944,70.0114244 111.100507,65.5266364 C115.96123,59.7641311 123.211016,56.1098595 131.305868,56.1098595 C145.932516,56.1098595 157.795224,68.0309625 157.795224,82.7374893 C157.795224,84.2388072 157.668146,85.7145707 157.433052,87.1456142 C152.953562,85.5612446 149.026859,82.8013751 146.015117,79.2301551 C142.2282,74.7517558 137.195921,72.4071444 131.356699,72.4071444 L131.261391,72.4071444 C125.415814,72.4071444 120.383536,74.7517558 116.602973,79.2365437 C111.748603,84.999049 104.492464,88.6469321 96.3976118,88.6469321 M96.3976118,53.8930199 C88.3726523,53.8930199 81.1864059,50.3090227 76.3256822,44.6423462 C81.1864059,38.9820583 88.3726523,35.3916725 96.3976118,35.3916725 C104.422571,35.3916725 111.608818,38.9820583 116.463187,44.6423462 C111.608818,50.3090227 104.422571,53.8930199 96.3976118,53.8930199" id="Fill-3" fill="#471374"></path>
            </g>
        </g>
    </g>
</svg>