<?xml version="1.0" encoding="UTF-8"?>
<svg width="498px" height="55px" viewBox="0 0 498 55" version="1.1" xmlns="http://www.w3.org/2000/svg" xmlns:xlink="http://www.w3.org/1999/xlink">
  <g id="gotham">
      <path d="M0.69140625,32.890625 L0.69140625,2.76171875 L60.984375,2.76171875 L60.984375,12.78125 L10.7460938,12.78125 L10.7460938,32.890625 C10.7460938,35.6562638 11.7304589,38.0234277 13.6992188,39.9921875 C15.6679786,41.9609473 18.0351424,42.9453125 20.8007812,42.9453125 L50.9296875,42.9453125 L50.9296875,32.890625 L25.828125,32.890625 L25.828125,22.8359375 L60.984375,22.8359375 L60.984375,53 L20.8007812,53 C15.246066,53 10.5117383,51.0312697 6.59765625,47.09375 C2.66013656,43.1796679 0.69140625,38.4453403 0.69140625,32.890625 Z M118.605469,32.890625 L118.605469,12.78125 L88.4765625,12.78125 C85.7109237,12.78125 83.3437598,13.7656152 81.375,15.734375 C79.4062402,17.7031348 78.421875,20.0702987 78.421875,22.8359375 L78.421875,42.9453125 L108.585938,42.9453125 C111.351576,42.9453125 113.71874,41.9609473 115.6875,39.9921875 C117.632822,38.0234277 118.605469,35.6562638 118.605469,32.890625 Z M68.3671875,53 L68.3671875,22.8359375 C68.3671875,17.3046598 70.3359178,12.5703322 74.2734375,8.6328125 C78.1875196,4.71873043 82.9218472,2.76171875 88.4765625,2.76171875 L128.660156,2.76171875 L128.660156,32.890625 C128.660156,38.4453403 126.703145,43.1796679 122.789062,47.09375 C118.851543,51.0312697 114.117215,53 108.585938,53 L68.3671875,53 Z M136.042969,2.76171875 L192.996094,2.76171875 L192.996094,12.78125 L169.546875,12.78125 L169.546875,53 L159.492188,53 L159.492188,12.78125 L136.042969,12.78125 L136.042969,2.76171875 Z M250.617188,2.76171875 L260.671875,2.76171875 L260.671875,53 L250.617188,53 L250.617188,32.890625 L210.433594,32.890625 L210.433594,53 L200.378906,53 L200.378906,2.76171875 L210.433594,2.76171875 L210.433594,22.8359375 L250.617188,22.8359375 L250.617188,2.76171875 Z M278.109375,27.8632812 L318.292969,27.8632812 L318.292969,22.8359375 C318.292969,20.0702987 317.320322,17.7031348 315.375,15.734375 C313.40624,13.7656152 311.039076,12.78125 308.273438,12.78125 L278.109375,12.78125 L278.109375,27.8632812 Z M268.054688,2.76171875 L308.273438,2.76171875 C313.804715,2.76171875 318.539043,4.71873043 322.476562,8.6328125 C326.390645,12.5703322 328.347656,17.3046598 328.347656,22.8359375 L328.347656,53 L318.292969,53 L318.292969,37.9179688 L278.109375,37.9179688 L278.109375,53 L268.054688,53 L268.054688,2.76171875 Z M407.203125,2.76171875 L421.160156,2.76171875 L421.160156,53 L411.105469,53 L411.105469,13.5195312 L378.445312,50.5390625 L345.785156,13.5195312 L345.785156,53 L335.730469,53 L335.730469,2.76171875 L349.6875,2.76171875 L378.445312,35.3515625 L407.203125,2.76171875 Z" id="GOTHAM"></path>
      <path d="M454.216,39.104 C454.216,43.8080235 453.124011,47.5159864 450.94,50.228 C448.755989,52.9400136 445.504022,54.296 441.184,54.296 C438.159985,54.296 435.592011,53.5160078 433.48,51.956 C431.367989,50.3959922 429.904004,48.512011 429.088,46.304 L430.456,45.656 C431.416005,47.8160108 432.831991,49.5559934 434.704,50.876 C436.576009,52.1960066 438.735988,52.856 441.184,52.856 C443.24801,52.856 444.999993,52.5080035 446.44,51.812 C447.880007,51.1159965 449.055995,50.1440062 449.968,48.896 C450.880005,47.6479938 451.551998,46.1720085 451.984,44.468 C452.416002,42.7639915 452.632,40.9040101 452.632,38.888 L452.632,2.024 L454.216,2.024 L454.216,39.104 Z" id="Path"></path>
      <path d="M497.416,40.76 C497.416,42.9200108 496.996004,44.8519915 496.156,46.556 C495.315996,48.2600085 494.200007,49.6999941 492.808,50.876 C491.415993,52.0520059 489.772009,52.939997 487.876,53.54 C485.979991,54.140003 484.00001,54.44 481.936,54.44 C478.767984,54.44 475.876013,53.8760056 473.26,52.748 C470.643987,51.6199944 468.472009,50.0960096 466.744,48.176 L467.968,47.096 C469.792009,49.0640098 471.915988,50.5399951 474.34,51.524 C476.764012,52.5080049 479.271987,53 481.864,53 C483.736009,53 485.511992,52.7240028 487.192,52.172 C488.872008,51.6199972 490.359994,50.8280052 491.656,49.796 C492.952006,48.7639948 493.971996,47.4920076 494.716,45.98 C495.460004,44.4679924 495.832,42.7280098 495.832,40.76 C495.832,38.7919902 495.424004,37.1360067 494.608,35.792 C493.791996,34.4479933 492.736006,33.2960048 491.44,32.336 C490.143994,31.3759952 488.668008,30.5720032 487.012,29.924 C485.355992,29.2759968 483.688008,28.6880026 482.008,28.16 C479.895989,27.4879966 477.964009,26.7800037 476.212,26.036 C474.459991,25.2919963 472.948006,24.3800054 471.676,23.3 C470.403994,22.2199946 469.420003,20.9240076 468.724,19.412 C468.027997,17.8999924 467.68,16.0640108 467.68,13.904 C467.68,11.7919894 468.099996,9.90800828 468.94,8.252 C469.780004,6.59599172 470.919993,5.20400564 472.36,4.076 C473.800007,2.94799436 475.467991,2.084003 477.364,1.484 C479.260009,0.883997 481.263989,0.584 483.376,0.584 C485.968013,0.584 488.427988,1.07599508 490.756,2.06 C493.084012,3.04400492 494.991993,4.44799088 496.48,6.272 L495.256,7.352 C493.911993,5.6719916 492.19601,4.36400468 490.108,3.428 C488.01999,2.49199532 485.752012,2.024 483.304,2.024 C481.575991,2.024 479.884008,2.2639976 478.228,2.744 C476.571992,3.2240024 475.072007,3.95599508 473.728,4.94 C472.383993,5.92400492 471.304004,7.15999256 470.488,8.648 C469.671996,10.1360074 469.264,11.8879899 469.264,13.904 C469.264,15.8720098 469.623996,17.5399932 470.344,18.908 C471.064004,20.2760068 472.023994,21.4399952 473.224,22.4 C474.424006,23.3600048 475.779992,24.1519969 477.292,24.776 C478.804008,25.4000031 480.351992,25.9759974 481.936,26.504 C484.096011,27.2240036 486.111991,27.9559963 487.984,28.7 C489.856009,29.4440037 491.499993,30.3439947 492.916,31.4 C494.332007,32.4560053 495.435996,33.7399924 496.228,35.252 C497.020004,36.7640076 497.416,38.5999892 497.416,40.76 Z" id="Path"></path>
  </g>
</svg>